<svg width="24" height="24" viewBox="0 0 24 24" fill="none" xmlns="http://www.w3.org/2000/svg">
<g clip-path="url(#clip0_538_67)">
<path fill-rule="evenodd" clip-rule="evenodd" d="M12.041 2.00102L12 1.99902V2.00002C9.92157 2.00005 7.92474 2.80896 6.4323 4.25549C4.93985 5.70203 4.06895 7.67261 4.004 9.75002L4 10C3.20435 10 2.44129 10.3161 1.87868 10.8787C1.31607 11.4413 1 12.2044 1 13L1.005 13.175C1.04989 13.9389 1.38499 14.6568 1.94174 15.1817C2.49849 15.7067 3.23479 15.9991 4 15.999L4.071 15.998L4.099 16.176C4.673 19.51 7.555 22.002 11 22H21L21.112 21.994C21.2823 21.9748 21.4449 21.9121 21.584 21.8119C21.7231 21.7117 21.8341 21.5775 21.9064 21.4221C21.9787 21.2666 22.0098 21.0952 21.9968 20.9243C21.9838 20.7534 21.927 20.5887 21.832 20.446L19.999 17.696L20 16C20.7956 16 21.5587 15.684 22.1213 15.1213C22.6839 14.5587 23 13.7957 23 13L22.995 12.824C22.9519 12.0904 22.6411 11.3982 22.1215 10.8785C21.6019 10.3589 20.9096 10.0481 20.176 10.005L19.999 9.99902L19.996 9.75102C19.9326 7.71649 19.0961 5.78262 17.6567 4.34329C16.2174 2.90396 14.2835 2.06741 12.249 2.00402L12.041 2.00102ZM9.883 8.00702L10.01 8.00002C10.2649 8.00031 10.51 8.0979 10.6954 8.27287C10.8807 8.44784 10.9922 8.68698 11.0072 8.94142C11.0221 9.19586 10.9393 9.4464 10.7757 9.64186C10.6121 9.83731 10.3801 9.96292 10.127 9.99302L10 10C9.74512 9.99974 9.49997 9.90214 9.31463 9.72717C9.1293 9.55221 9.01777 9.31307 9.00283 9.05863C8.98789 8.80419 9.07067 8.55364 9.23426 8.35819C9.39785 8.16274 9.6299 8.03713 9.883 8.00702ZM13.883 8.00702L14.01 8.00002C14.2649 8.00031 14.51 8.0979 14.6954 8.27287C14.8807 8.44784 14.9922 8.68698 15.0072 8.94142C15.0221 9.19586 14.9393 9.4464 14.7757 9.64186C14.6121 9.83731 14.3801 9.96292 14.127 9.99302L14 10C13.7451 9.99974 13.5 9.90214 13.3146 9.72717C13.1293 9.55221 13.0178 9.31307 13.0028 9.05863C12.9879 8.80419 13.0707 8.55364 13.2343 8.35819C13.3979 8.16274 13.6299 8.03713 13.883 8.00702ZM14.8284 14.8284C15.5786 14.0783 16 13.0609 16 12H12L8 12C8 13.0609 8.42143 14.0783 9.17157 14.8284C9.92172 15.5786 10.9391 16 12 16C13.0609 16 14.0783 15.5786 14.8284 14.8284Z" fill="white"/>
</g>
<defs>
<clipPath id="clip0_538_67">
<rect width="24" height="24" fill="white"/>
</clipPath>
</defs>
</svg>
