<svg width="660" height="263" viewBox="0 0 660 263" fill="none" xmlns="http://www.w3.org/2000/svg">
<path d="M131.95 195.787C130.094 193.985 127.856 192.566 125.399 191.583C122.943 190.601 120.322 190.055 117.592 190.055H84.018V221.609H71.7347C71.2979 218.334 70.4791 215.167 69.2234 212.165C67.3127 207.797 64.7468 203.921 61.5259 200.7C58.3049 197.479 54.4288 194.859 50.116 193.003C41.4358 189.236 30.8448 189.181 22.0008 193.003C17.6334 194.913 13.7573 197.479 10.5364 200.7C7.31541 203.921 4.69497 207.797 2.83882 212.165C0.928077 216.532 0 221.282 0 226.195C0 231.108 0.982669 235.912 2.83882 240.28C4.74956 244.647 7.31541 248.469 10.5364 251.744C13.7573 255.02 17.6334 257.586 22.0008 259.442C26.3682 261.298 31.1178 262.226 36.0311 262.226C40.9445 262.226 45.7486 261.298 50.116 259.442C54.4834 257.586 58.3049 254.965 61.5259 251.744C64.7468 248.469 67.3673 244.647 69.2234 240.28C70.5882 237.168 71.4617 233.838 71.8439 230.399H84.018V262.281H91.3334V230.999C91.3334 230.999 91.4426 230.617 91.5518 230.453L91.9339 230.016C91.9339 230.016 92.2615 229.798 92.4799 229.798H118.302C120.977 229.798 123.598 229.252 126 228.215C128.402 227.178 130.531 225.758 132.332 224.011C134.134 222.264 135.553 220.135 136.591 217.733C137.628 215.331 138.174 212.711 138.174 210.035C138.174 207.36 137.628 204.631 136.482 202.229C135.39 199.827 133.861 197.698 132.005 195.896L131.95 195.787ZM91.4426 221.609C91.4426 221.609 91.3334 221.391 91.3334 221.282V198.407C91.3334 198.08 91.4426 197.807 91.6064 197.588C91.7156 197.479 91.9339 197.315 92.3161 197.315H118.302C119.995 197.315 121.632 197.643 123.161 198.298C124.69 198.953 126 199.881 127.146 201.028C128.293 202.174 129.221 203.484 129.876 205.013C130.531 206.487 130.858 208.125 130.858 209.872C130.858 211.619 130.476 213.311 129.767 214.84C129.057 216.423 128.074 217.733 126.928 218.879C125.727 219.971 124.307 220.899 122.724 221.555C121.141 222.21 119.449 222.537 117.647 222.537H92.4799C92.4799 222.537 92.0977 222.428 91.9339 222.319L91.4426 221.664V221.609ZM62.5085 237.332C60.9799 240.826 58.9054 243.883 56.285 246.503C53.6645 249.124 50.6074 251.198 47.1134 252.672C40.1802 255.62 31.6637 255.62 24.7305 252.672C21.2365 251.198 18.1793 249.124 15.5589 246.503C12.9384 243.883 10.8639 240.826 9.38993 237.332C7.91593 233.838 7.15164 230.071 7.15164 226.14C7.15164 222.21 7.91593 218.443 9.38993 214.949C10.8639 211.509 12.9384 208.398 15.5589 205.832C18.1793 203.211 21.2365 201.191 24.7305 199.663C28.2244 198.189 31.9367 197.425 35.9219 197.425C39.9072 197.425 43.6195 198.189 47.1134 199.663C50.6074 201.137 53.6645 203.211 56.285 205.832C58.9054 208.452 60.9799 211.509 62.5085 214.949C64.0371 218.388 64.8014 222.155 64.8014 226.14C64.8014 230.126 64.0371 233.892 62.5085 237.332Z" fill="black"/>
<path d="M148.71 262.171H199.482V254.856H157.172C156.845 254.856 156.572 254.747 156.353 254.528C156.135 254.31 156.026 254.037 156.026 253.71V230.944C156.026 230.617 156.135 230.344 156.353 230.126C156.626 229.907 156.845 229.798 157.172 229.798H199.482V222.483H157.172C156.845 222.483 156.572 222.373 156.353 222.155C156.135 221.937 156.026 221.664 156.026 221.282V198.571C156.026 198.243 156.135 197.971 156.408 197.698C156.626 197.425 156.899 197.315 157.227 197.315H199.536V190.109L148.765 190V262.171H148.71Z" fill="black"/>
<path d="M269.087 247.541C269.087 248.141 268.65 248.305 268.486 248.359C268.323 248.359 267.886 248.523 267.504 248.087L218.316 190.328L217.988 190H211.819V262.171H219.135V206.05C219.135 205.231 219.681 204.74 220.172 204.576C220.663 204.412 221.428 204.412 221.919 205.068L270.124 262.226H276.239V190.055H269.032V247.595L269.087 247.541Z" fill="black"/>
<path d="M372.649 194.313C369.919 192.784 366.808 191.747 363.477 191.146C356.981 189.945 351.085 189.945 344.588 191.146C341.313 191.747 338.256 192.73 335.471 194.149C332.687 195.623 330.34 197.588 328.538 200.045C326.682 202.556 325.754 205.777 325.754 209.599C325.754 213.42 326.518 216.423 328.047 218.825C329.521 221.227 331.486 223.192 333.888 224.666C336.236 226.14 338.965 227.287 342.022 228.051C344.916 228.815 348.028 229.47 351.139 230.016C354.197 230.562 357.199 231.108 360.147 231.6C362.986 232.145 365.552 232.855 367.736 233.729C369.865 234.602 371.612 235.803 372.922 237.223C374.178 238.642 374.778 240.444 374.778 242.846C374.778 245.357 374.068 247.377 372.758 248.905C371.339 250.489 369.537 251.744 367.463 252.672C365.334 253.6 362.986 254.255 360.584 254.583C358.127 254.911 355.944 255.074 354.087 255.074C352.068 255.074 349.72 254.911 347.209 254.583C344.698 254.255 342.35 253.6 340.166 252.672C338.037 251.799 336.236 250.489 334.816 248.905C333.451 247.322 332.796 245.357 332.796 242.9V241.918H325.754V242.9C325.754 246.831 326.682 250.106 328.484 252.672C330.285 255.184 332.633 257.149 335.417 258.568C338.201 259.988 341.258 260.97 344.588 261.462C347.864 261.953 351.03 262.226 354.087 262.226C357.145 262.226 360.256 261.953 363.477 261.353C366.753 260.752 369.81 259.769 372.594 258.35C375.379 256.876 377.726 254.911 379.528 252.454C381.384 249.943 382.312 246.722 382.312 242.9C382.312 239.406 381.548 236.458 380.019 234.22C378.545 231.982 376.525 230.18 374.123 228.815C371.775 227.505 369.046 226.468 366.043 225.758C363.095 225.048 360.038 224.448 356.981 223.902C353.924 223.356 350.921 222.81 347.973 222.264C345.134 221.718 342.568 220.899 340.385 219.917C338.256 218.934 336.509 217.569 335.198 215.986C333.943 214.457 333.288 212.328 333.288 209.708C333.288 207.087 333.943 205.177 335.308 203.648C336.727 202.065 338.529 200.809 340.603 199.881C342.732 198.953 345.08 198.298 347.482 197.971C349.938 197.643 352.122 197.479 353.978 197.479C355.998 197.479 358.291 197.698 360.802 198.134C363.314 198.571 365.661 199.281 367.845 200.318C369.974 201.301 371.775 202.665 373.195 204.412C374.56 206.05 375.269 208.07 375.269 210.581V211.564H382.312V210.581C382.312 206.651 381.384 203.321 379.582 200.7C377.781 198.134 375.488 196.06 372.649 194.477V194.313Z" fill="black"/>
<path d="M453.119 200.7C449.898 197.479 446.022 194.859 441.709 193.003C433.029 189.236 422.438 189.181 413.594 193.003C409.226 194.913 405.35 197.479 402.129 200.7C398.908 203.921 396.288 207.797 394.432 212.165C392.521 216.532 391.593 221.282 391.593 226.195C391.593 231.108 392.575 235.912 394.432 240.28C396.342 244.647 398.908 248.469 402.129 251.744C405.35 255.02 409.226 257.586 413.594 259.442C417.961 261.298 422.711 262.226 427.624 262.226C432.537 262.226 437.341 261.298 441.709 259.442C446.076 257.586 449.898 254.965 453.119 251.744C456.34 248.469 458.96 244.647 460.816 240.28C462.727 235.912 463.655 231.217 463.655 226.195C463.655 221.172 462.672 216.532 460.816 212.165C458.905 207.797 456.34 203.921 453.119 200.7ZM427.569 197.425C431.5 197.425 435.267 198.189 438.761 199.663C442.255 201.137 445.312 203.211 447.932 205.832C450.553 208.452 452.627 211.509 454.156 214.949C455.684 218.388 456.449 222.155 456.449 226.14C456.449 230.126 455.684 233.892 454.156 237.332C452.627 240.826 450.553 243.937 447.932 246.503C445.312 249.124 442.255 251.198 438.761 252.672C431.828 255.62 423.311 255.62 416.378 252.672C412.884 251.198 409.827 249.124 407.206 246.503C404.586 243.883 402.511 240.826 401.037 237.332C399.563 233.838 398.799 230.071 398.799 226.14C398.799 222.21 399.563 218.443 401.037 214.949C402.511 211.509 404.586 208.398 407.206 205.832C409.827 203.211 412.884 201.191 416.378 199.663C419.872 198.189 423.639 197.425 427.569 197.425Z" fill="black"/>
<path d="M526.545 232.91C526.545 235.967 525.945 238.86 524.799 241.481C523.652 244.156 522.069 246.503 520.104 248.469C518.138 250.434 515.791 252.017 513.116 253.164C507.875 255.402 501.378 255.457 495.974 253.164C493.299 252.017 490.951 250.434 488.931 248.469C486.966 246.503 485.383 244.156 484.236 241.481C483.09 238.86 482.489 235.967 482.489 232.91V190.164H475.174V232.91C475.174 236.95 475.938 240.771 477.467 244.32C478.995 247.868 481.07 250.98 483.745 253.655C486.365 256.275 489.532 258.405 493.08 259.933C496.629 261.462 500.45 262.226 504.49 262.226C508.53 262.226 512.351 261.462 515.9 259.933C519.448 258.405 522.615 256.33 525.235 253.655C527.856 250.98 529.985 247.868 531.513 244.32C533.042 240.771 533.806 236.95 533.806 232.91V190.164H526.491V232.91H526.545Z" fill="black"/>
<path d="M556.189 254.31C555.807 253.873 555.589 253.273 555.589 252.454V190.055H548.273V262.226H595.987V254.911H557.936C557.172 254.911 556.571 254.692 556.189 254.31Z" fill="black"/>
<path d="M659.151 211.346V210.363C659.151 206.432 658.223 203.102 656.421 200.482C654.62 197.916 652.327 195.841 649.488 194.258C646.758 192.73 643.646 191.692 640.316 191.092C633.82 189.891 627.924 189.891 621.427 191.092C618.152 191.692 615.095 192.675 612.31 194.094C609.526 195.568 607.179 197.534 605.377 199.99C603.521 202.502 602.593 205.723 602.593 209.544C602.593 213.366 603.357 216.368 604.886 218.77C606.36 221.172 608.325 223.138 610.727 224.612C613.075 226.086 615.804 227.232 618.861 227.996C621.755 228.761 624.867 229.416 627.978 229.962C631.036 230.508 634.038 231.054 636.986 231.545C639.825 232.091 642.391 232.801 644.574 233.674C646.704 234.548 648.451 235.749 649.761 237.168C651.016 238.587 651.617 240.389 651.617 242.791C651.617 245.302 650.907 247.322 649.597 248.851C648.178 250.434 646.376 251.69 644.302 252.618C642.172 253.546 639.825 254.201 637.423 254.528C634.966 254.856 632.782 255.02 630.926 255.02C628.906 255.02 626.559 254.856 624.048 254.528C621.536 254.201 619.189 253.546 617.005 252.618C614.876 251.744 613.075 250.434 611.655 248.851C610.29 247.268 609.635 245.302 609.635 242.846V241.863H602.593V242.846C602.593 246.776 603.521 250.052 605.322 252.618C607.124 255.129 609.471 257.094 612.256 258.514C615.04 259.933 618.097 260.916 621.427 261.407C624.703 261.898 627.869 262.171 630.926 262.171C633.984 262.171 637.095 261.898 640.316 261.298C643.592 260.697 646.649 259.715 649.433 258.295C652.217 256.821 654.565 254.856 656.367 252.399C658.223 249.888 659.151 246.667 659.151 242.846C659.151 239.352 658.386 236.404 656.858 234.165C655.384 231.927 653.364 230.126 650.962 228.761C648.614 227.451 645.885 226.413 642.882 225.704C639.934 224.994 636.877 224.393 633.82 223.847C630.763 223.301 627.76 222.756 624.812 222.21C621.973 221.664 619.407 220.845 617.224 219.862C615.095 218.879 613.348 217.515 612.037 215.931C610.782 214.403 610.127 212.274 610.127 209.653C610.127 207.033 610.782 205.122 612.146 203.594C613.566 202.01 615.367 200.755 617.442 199.827C619.571 198.899 621.919 198.243 624.321 197.916C626.777 197.588 628.961 197.425 630.817 197.425C632.837 197.425 635.13 197.643 637.641 198.08C640.153 198.516 642.5 199.226 644.684 200.263C646.813 201.246 648.614 202.611 650.034 204.358C651.399 205.996 652.108 208.016 652.108 210.527V211.509H659.151V211.346Z" fill="black"/>
<path d="M382.091 100.56H333.667V87.1298H381.927L359.162 49.2971C367.132 41.545 372.155 30.7356 372.155 18.7253H363.857C363.857 27.6785 360.363 35.8127 354.74 41.9271L329.518 0L304.296 41.9271C298.673 35.8127 295.179 27.6785 295.179 18.7253H286.881C286.881 30.7356 291.849 41.545 299.874 49.2971L277.164 87.1298H325.424V100.56H277V108.858H325.424V132.824H333.722V108.858H382.145V100.56H382.091ZM348.407 47.3864C343.002 50.9349 336.506 53.064 329.573 53.064C322.639 53.064 316.143 50.9895 310.738 47.3864L329.573 16.0502L348.407 47.3864ZM306.48 54.4834C313.14 58.7962 321.056 61.3621 329.573 61.3621C338.089 61.3621 346.005 58.8508 352.665 54.4834L367.296 78.8863H291.795L306.425 54.4834H306.48Z" fill="black"/>
</svg>
